<svg xmlns="http://www.w3.org/2000/svg" viewBox="0 0 800 600">
  <!-- Pentru Companii cu Proiecte Complexe: a large team with granular roles, the budget split by
       category, project files packed automatically into an archive with its index (opis) and size
       check, and MIPE compliance. Site colours (navy, mint). -->
  <defs>
    <filter id="shadow" x="-20%" y="-20%" width="140%" height="150%">
      <feDropShadow dx="0" dy="10" stdDeviation="12" flood-color="#000" flood-opacity=".35"/>
    </filter>
    <clipPath id="m"><circle cx="240" cy="104" r="26"/></clipPath>
    <clipPath id="r1"><circle cx="140" cy="214" r="22"/></clipPath>
    <clipPath id="r2"><circle cx="240" cy="214" r="22"/></clipPath>
    <clipPath id="r3"><circle cx="340" cy="214" r="22"/></clipPath>
  </defs>

  <!-- No background of its own: the page's box draws it (illustration-bg in src/index.css). -->

  <!-- Roles -->
  <path d="M240 130v24M140 154h200M140 154v38M240 154v38M340 154v38" fill="none" stroke="#1d4f8f" stroke-width="2"/>
  <circle cx="240" cy="104" r="34" fill="#6ee7a8" opacity=".14"/>
  <g clip-path="url(#m)">
    <circle cx="240" cy="104" r="26" fill="#173f73"/>
    <ellipse cx="240" cy="128" rx="17" ry="13" fill="#10b77f"/>
    <circle cx="240" cy="98" r="9" fill="#d6e4f5"/>
    <path d="M231 97a9 9 0 0 1 18 0c-3-4.5-6-5.5-9-5.5s-6 1-9 5.5z" fill="#0a1f3c"/>
  </g>
  <circle cx="240" cy="104" r="26" fill="none" stroke="#6ee7a8" stroke-width="2.5"/>

  <g clip-path="url(#r1)">
    <circle cx="140" cy="214" r="22" fill="#173f73"/>
    <ellipse cx="140" cy="234" rx="15" ry="11" fill="#6ee7a8"/>
    <circle cx="140" cy="209" r="8" fill="#d6e4f5"/>
    <path d="M132 208a8 8 0 0 1 16 0c-3-4-5-5-8-5s-5 1-8 5z" fill="#0f2d56"/>
  </g>
  <circle cx="140" cy="214" r="22" fill="none" stroke="#1d4f8f" stroke-width="2"/>
  <g clip-path="url(#r2)">
    <circle cx="240" cy="214" r="22" fill="#173f73"/>
    <ellipse cx="240" cy="234" rx="15" ry="11" fill="#aec8ea"/>
    <path d="M231 211a9 9 0 0 1 18 0v10h-4v-9a5 5 0 0 0-10 0v9h-4z" fill="#061426"/>
    <circle cx="240" cy="210" r="7.5" fill="#d6e4f5"/>
    <path d="M232.5 209a7.5 7.5 0 0 1 15 0c-3-3-5-4-7.5-4s-4.5 1-7.5 4z" fill="#061426"/>
  </g>
  <circle cx="240" cy="214" r="22" fill="none" stroke="#1d4f8f" stroke-width="2"/>
  <g clip-path="url(#r3)">
    <circle cx="340" cy="214" r="22" fill="#173f73"/>
    <ellipse cx="340" cy="234" rx="15" ry="11" fill="#1d4f8f"/>
    <circle cx="340" cy="209" r="8" fill="#aec8ea"/>
    <path d="M332 208a8 8 0 0 1 16 0c-2-5-4-6-8-6s-6 1-8 6z" fill="#0f2d56"/>
  </g>
  <circle cx="340" cy="214" r="22" fill="none" stroke="#1d4f8f" stroke-width="2"/>
  <rect x="110" y="246" width="60" height="18" rx="9" fill="#6ee7a8"/>
  <rect x="122" y="252" width="36" height="6" rx="3" fill="#061426" opacity=".6"/>
  <rect x="210" y="246" width="60" height="18" rx="9" fill="#aec8ea"/>
  <rect x="222" y="252" width="36" height="6" rx="3" fill="#061426" opacity=".6"/>
  <rect x="310" y="246" width="60" height="18" rx="9" fill="#e2e8f0"/>
  <rect x="322" y="252" width="36" height="6" rx="3" fill="#061426" opacity=".6"/>
  <rect x="204" y="142" width="72" height="18" rx="9" fill="#10b77f" transform="translate(0 -4)"/>
  <rect x="216" y="144" width="48" height="6" rx="3" fill="#fff" opacity=".85"/>

  <!-- Budget by category -->
  <rect x="86" y="298" width="344" height="222" rx="16" fill="#0a1f3c" stroke="#1d4f8f" stroke-width="2"/>
  <rect x="106" y="318" width="100" height="9" rx="4.5" fill="#e2e8f0"/>
  <rect x="106" y="334" width="64" height="6" rx="3" fill="#94a3b8" opacity=".5"/>
  <g>
    <rect x="106" y="362" width="64" height="7" rx="3.5" fill="#94a3b8" opacity=".5"/>
    <rect x="186" y="359" width="224" height="13" rx="6.5" fill="#173f73"/>
    <rect x="186" y="359" width="120" height="13" rx="6.5" fill="#6ee7a8"/>
    <rect x="300" y="359" width="50" height="13" fill="#aec8ea" opacity=".8"/>
    <rect x="106" y="394" width="52" height="7" rx="3.5" fill="#94a3b8" opacity=".5"/>
    <rect x="186" y="391" width="224" height="13" rx="6.5" fill="#173f73"/>
    <rect x="186" y="391" width="80" height="13" rx="6.5" fill="#6ee7a8"/>
    <rect x="260" y="391" width="70" height="13" fill="#aec8ea" opacity=".8"/>
    <rect x="106" y="426" width="70" height="7" rx="3.5" fill="#94a3b8" opacity=".5"/>
    <rect x="186" y="423" width="224" height="13" rx="6.5" fill="#173f73"/>
    <rect x="186" y="423" width="150" height="13" rx="6.5" fill="#6ee7a8"/>
    <rect x="330" y="423" width="30" height="13" fill="#aec8ea" opacity=".8"/>
    <rect x="106" y="458" width="58" height="7" rx="3.5" fill="#94a3b8" opacity=".5"/>
    <rect x="186" y="455" width="224" height="13" rx="6.5" fill="#173f73"/>
    <rect x="186" y="455" width="60" height="13" rx="6.5" fill="#6ee7a8"/>
    <rect x="240" y="455" width="40" height="13" fill="#aec8ea" opacity=".8"/>
  </g>
  <circle cx="112" cy="494" r="5" fill="#6ee7a8"/><rect x="122" y="491" width="40" height="6" rx="3" fill="#94a3b8" opacity=".5"/>
  <circle cx="186" cy="494" r="5" fill="#aec8ea"/><rect x="196" y="491" width="46" height="6" rx="3" fill="#94a3b8" opacity=".5"/>
  <circle cx="266" cy="494" r="5" fill="#173f73" stroke="#1d4f8f"/><rect x="276" y="491" width="36" height="6" rx="3" fill="#94a3b8" opacity=".5"/>

  <!-- Project files -->
  <g filter="url(#shadow)">
    <g transform="rotate(-12 540 140)">
      <rect x="496" y="84" width="88" height="112" rx="10" fill="#e2e8f0"/>
    </g>
    <g transform="rotate(10 620 140)">
      <rect x="576" y="84" width="88" height="112" rx="10" fill="#e2e8f0"/>
    </g>
    <rect x="536" y="72" width="88" height="112" rx="10" fill="#f8fafc"/>
  </g>
  <rect x="550" y="88" width="46" height="8" rx="4" fill="#0a1f3c"/>
  <g fill="#cbd5e1">
    <rect x="550" y="106" width="60" height="6" rx="3"/>
    <rect x="550" y="118" width="52" height="6" rx="3"/>
    <rect x="550" y="130" width="58" height="6" rx="3"/>
    <rect x="550" y="142" width="40" height="6" rx="3"/>
  </g>
  <rect x="550" y="158" width="30" height="14" rx="4" fill="#10b77f"/>

  <path d="M580 200v36m-9-9 9 9 9-9" fill="none" stroke="#6ee7a8" stroke-width="3" stroke-linecap="round" stroke-linejoin="round"/>

  <!-- Automatic archive -->
  <rect x="486" y="276" width="184" height="150" rx="14" fill="#0f2d56" stroke="#1d4f8f" stroke-width="2"/>
  <rect x="474" y="252" width="208" height="36" rx="10" fill="#173f73" stroke="#1d4f8f" stroke-width="2"/>
  <line x1="578" y1="290" x2="578" y2="420" stroke="#6ee7a8" stroke-width="2" stroke-dasharray="5 4"/>
  <rect x="571" y="296" width="14" height="22" rx="4" fill="#6ee7a8"/>
  <rect x="502" y="340" width="58" height="30" rx="6" fill="#0a1f3c"/>
  <rect x="510" y="348" width="40" height="5" rx="2.5" fill="#94a3b8" opacity=".6"/>
  <rect x="510" y="358" width="28" height="5" rx="2.5" fill="#94a3b8" opacity=".6"/>
  <rect x="590" y="346" width="40" height="10" rx="5" fill="#0a1f3c"/>
  <rect x="590" y="346" width="18" height="10" rx="5" fill="#6ee7a8"/>
  <line x1="622" y1="340" x2="622" y2="362" stroke="#e2e8f0" stroke-width="2" stroke-linecap="round"/>
  <rect x="590" y="366" width="30" height="5" rx="2.5" fill="#94a3b8" opacity=".6"/>

  <!-- The archive's index (opis) -->
  <g filter="url(#shadow)">
    <rect x="636" y="318" width="118" height="164" rx="12" fill="#f8fafc"/>
  </g>
  <rect x="650" y="334" width="56" height="9" rx="4.5" fill="#0a1f3c"/>
  <g>
    <circle cx="656" cy="364" r="5" fill="#10b77f"/><rect x="668" y="361" width="68" height="6" rx="3" fill="#cbd5e1"/>
    <circle cx="656" cy="386" r="5" fill="#10b77f"/><rect x="668" y="383" width="56" height="6" rx="3" fill="#cbd5e1"/>
    <circle cx="656" cy="408" r="5" fill="#10b77f"/><rect x="668" y="405" width="62" height="6" rx="3" fill="#cbd5e1"/>
    <circle cx="656" cy="430" r="5" fill="#10b77f"/><rect x="668" y="427" width="48" height="6" rx="3" fill="#cbd5e1"/>
    <circle cx="656" cy="452" r="5" fill="#10b77f"/><rect x="668" y="449" width="60" height="6" rx="3" fill="#cbd5e1"/>
  </g>

  <!-- MIPE compliance -->
  <line x1="682" y1="270" x2="706" y2="250" stroke="#6ee7a8" stroke-width="1.5" stroke-dasharray="3 4" opacity=".7"/>
  <circle cx="726" cy="232" r="32" fill="#6ee7a8" opacity=".18"/>
  <circle cx="726" cy="232" r="23" fill="#6ee7a8"/>
  <path d="M726 219l11 4v8c0 7-4.5 12-11 14-6.5-2-11-7-11-14v-8z" fill="none" stroke="#061426" stroke-width="2.4" stroke-linejoin="round"/>
  <path d="m721 232 3.5 3.5 6-6" fill="none" stroke="#061426" stroke-width="2.4" stroke-linecap="round" stroke-linejoin="round"/>
</svg>
